<svg width="374" height="353" viewBox="0 0 374 353" fill="none" xmlns="http://www.w3.org/2000/svg">
<g filter="url(#filter0_f_225_295)">
<mask id="mask0_225_295" style="mask-type:alpha" maskUnits="userSpaceOnUse" x="0" y="0" width="374" height="353">
<rect width="374" height="353" fill="#D9D9D9"/>
</mask>
<g mask="url(#mask0_225_295)">
<path d="M187 304.462C168.3 304.462 150.704 301.092 134.211 294.351C117.719 287.609 103.369 278.478 91.1625 266.956C78.9555 255.435 69.2809 241.891 62.1385 226.324C54.9962 210.758 51.425 194.15 51.425 176.5C51.425 158.85 54.9962 142.242 62.1385 126.676C69.2809 111.109 78.9555 97.5653 91.1625 86.0438C103.369 74.5222 117.719 65.3908 134.211 58.6495C150.704 51.9082 168.3 48.5375 187 48.5375C205.7 48.5375 223.296 51.9082 239.789 58.6495C256.281 65.3908 270.631 74.5222 282.837 86.0438C295.044 97.5653 304.719 111.109 311.861 126.676C319.004 142.242 322.575 158.85 322.575 176.5C322.575 194.15 319.004 210.758 311.861 226.324C304.719 241.891 295.044 255.435 282.837 266.956C270.631 278.478 256.281 287.609 239.789 294.351C223.296 301.092 205.7 304.462 187 304.462ZM187 294.534C196.869 282.768 204.921 271.369 211.154 260.338C217.387 249.306 222.452 236.804 226.348 222.831H147.652C152.067 237.785 157.262 250.777 163.235 261.808C169.209 272.84 177.131 283.748 187 294.534ZM173.365 293.431C165.313 285.342 157.911 274.862 151.158 261.992C144.406 249.122 139.471 236.069 136.354 222.831H72.4625C81.8125 242.933 95.4479 259.234 113.369 271.736C131.29 284.239 151.288 291.47 173.365 293.431ZM200.635 293.431C222.712 291.47 242.71 284.239 260.631 271.736C278.552 259.234 292.188 242.933 301.538 222.831H237.646C233.231 236.314 227.647 249.49 220.894 262.36C214.141 275.23 207.388 285.587 200.635 293.431ZM68.1771 212.535H134.017C132.718 206.162 131.809 199.972 131.29 193.966C130.77 187.96 130.51 182.138 130.51 176.5C130.51 170.862 130.77 165.04 131.29 159.034C131.809 153.028 132.718 146.838 134.017 140.465H68.1771C66.359 145.613 64.9305 151.373 63.8917 157.747C62.8528 164.12 62.3333 170.372 62.3333 176.5C62.3333 182.628 62.8528 188.88 63.8917 195.253C64.9305 201.627 66.359 207.388 68.1771 212.535ZM144.925 212.535H229.075C230.374 206.162 231.283 200.095 231.802 194.334C232.322 188.573 232.581 182.628 232.581 176.5C232.581 170.372 232.322 164.427 231.802 158.666C231.283 152.905 230.374 146.838 229.075 140.465H144.925C143.626 146.838 142.717 152.905 142.198 158.666C141.678 164.427 141.419 170.372 141.419 176.5C141.419 182.628 141.678 188.573 142.198 194.334C142.717 200.095 143.626 206.162 144.925 212.535ZM239.983 212.535H305.823C307.641 207.388 309.069 201.627 310.108 195.253C311.147 188.88 311.667 182.628 311.667 176.5C311.667 170.372 311.147 164.12 310.108 157.747C309.069 151.373 307.641 145.613 305.823 140.465H239.983C241.282 146.838 242.191 153.028 242.71 159.034C243.23 165.04 243.49 170.862 243.49 176.5C243.49 182.138 243.23 187.96 242.71 193.966C242.191 199.972 241.282 206.162 239.983 212.535ZM237.646 130.169H301.538C291.928 109.577 278.487 93.2754 261.216 81.2635C243.944 69.2517 223.751 61.8976 200.635 59.201C208.687 68.5163 215.959 79.425 222.452 91.9271C228.945 104.429 234.01 117.176 237.646 130.169ZM147.652 130.169H226.348C221.933 115.46 216.543 102.284 210.18 90.6401C203.817 78.996 196.09 68.2712 187 58.4656C177.91 68.2712 170.183 78.996 163.82 90.6401C157.457 102.284 152.067 115.46 147.652 130.169ZM72.4625 130.169H136.354C139.99 117.176 145.055 104.429 151.548 91.9271C158.041 79.425 165.313 68.5163 173.365 59.201C149.99 61.8976 129.731 69.313 112.59 81.4474C95.4479 93.5818 82.0722 109.822 72.4625 130.169Z" fill="#CCF00F"/>
</g>
</g>
<mask id="mask1_225_295" style="mask-type:alpha" maskUnits="userSpaceOnUse" x="0" y="0" width="374" height="353">
<rect width="374" height="353" fill="#D9D9D9"/>
</mask>
<g mask="url(#mask1_225_295)">
<path d="M187 304.462C168.3 304.462 150.704 301.092 134.211 294.351C117.719 287.609 103.369 278.478 91.1625 266.956C78.9555 255.435 69.2809 241.891 62.1385 226.324C54.9962 210.758 51.425 194.15 51.425 176.5C51.425 158.85 54.9962 142.242 62.1385 126.676C69.2809 111.109 78.9555 97.5653 91.1625 86.0438C103.369 74.5222 117.719 65.3908 134.211 58.6495C150.704 51.9082 168.3 48.5375 187 48.5375C205.7 48.5375 223.296 51.9082 239.789 58.6495C256.281 65.3908 270.631 74.5222 282.837 86.0438C295.044 97.5653 304.719 111.109 311.861 126.676C319.004 142.242 322.575 158.85 322.575 176.5C322.575 194.15 319.004 210.758 311.861 226.324C304.719 241.891 295.044 255.435 282.837 266.956C270.631 278.478 256.281 287.609 239.789 294.351C223.296 301.092 205.7 304.462 187 304.462ZM187 294.534C196.869 282.768 204.921 271.369 211.154 260.338C217.387 249.306 222.452 236.804 226.348 222.831H147.652C152.067 237.785 157.262 250.777 163.235 261.808C169.209 272.84 177.131 283.748 187 294.534ZM173.365 293.431C165.313 285.342 157.911 274.862 151.158 261.992C144.406 249.122 139.471 236.069 136.354 222.831H72.4625C81.8125 242.933 95.4479 259.234 113.369 271.736C131.29 284.239 151.288 291.47 173.365 293.431ZM200.635 293.431C222.712 291.47 242.71 284.239 260.631 271.736C278.552 259.234 292.188 242.933 301.538 222.831H237.646C233.231 236.314 227.647 249.49 220.894 262.36C214.141 275.23 207.388 285.587 200.635 293.431ZM68.1771 212.535H134.017C132.718 206.162 131.809 199.972 131.29 193.966C130.77 187.96 130.51 182.138 130.51 176.5C130.51 170.862 130.77 165.04 131.29 159.034C131.809 153.028 132.718 146.838 134.017 140.465H68.1771C66.359 145.613 64.9305 151.373 63.8917 157.747C62.8528 164.12 62.3333 170.372 62.3333 176.5C62.3333 182.628 62.8528 188.88 63.8917 195.253C64.9305 201.627 66.359 207.388 68.1771 212.535ZM144.925 212.535H229.075C230.374 206.162 231.283 200.095 231.802 194.334C232.322 188.573 232.581 182.628 232.581 176.5C232.581 170.372 232.322 164.427 231.802 158.666C231.283 152.905 230.374 146.838 229.075 140.465H144.925C143.626 146.838 142.717 152.905 142.198 158.666C141.678 164.427 141.419 170.372 141.419 176.5C141.419 182.628 141.678 188.573 142.198 194.334C142.717 200.095 143.626 206.162 144.925 212.535ZM239.983 212.535H305.823C307.641 207.388 309.069 201.627 310.108 195.253C311.147 188.88 311.667 182.628 311.667 176.5C311.667 170.372 311.147 164.12 310.108 157.747C309.069 151.373 307.641 145.613 305.823 140.465H239.983C241.282 146.838 242.191 153.028 242.71 159.034C243.23 165.04 243.49 170.862 243.49 176.5C243.49 182.138 243.23 187.96 242.71 193.966C242.191 199.972 241.282 206.162 239.983 212.535ZM237.646 130.169H301.538C291.928 109.577 278.487 93.2754 261.216 81.2635C243.944 69.2517 223.751 61.8976 200.635 59.201C208.687 68.5163 215.959 79.425 222.452 91.9271C228.945 104.429 234.01 117.176 237.646 130.169ZM147.652 130.169H226.348C221.933 115.46 216.543 102.284 210.18 90.6401C203.817 78.996 196.09 68.2712 187 58.4656C177.91 68.2712 170.183 78.996 163.82 90.6401C157.457 102.284 152.067 115.46 147.652 130.169ZM72.4625 130.169H136.354C139.99 117.176 145.055 104.429 151.548 91.9271C158.041 79.425 165.313 68.5163 173.365 59.201C149.99 61.8976 129.731 69.313 112.59 81.4474C95.4479 93.5818 82.0722 109.822 72.4625 130.169Z" fill="#CCF00F"/>
</g>
<defs>
<filter id="filter0_f_225_295" x="36.425" y="33.5375" width="301.15" height="285.925" filterUnits="userSpaceOnUse" color-interpolation-filters="sRGB">
<feFlood flood-opacity="0" result="BackgroundImageFix"/>
<feBlend mode="normal" in="SourceGraphic" in2="BackgroundImageFix" result="shape"/>
<feGaussianBlur stdDeviation="7.5" result="effect1_foregroundBlur_225_295"/>
</filter>
</defs>
</svg>
